<svg xmlns="http://www.w3.org/2000/svg" viewBox="0 0 1200 630" role="img" aria-labelledby="title desc">
  <title id="title">Horse Riding Simulator</title>
  <desc id="desc">A stylized horse in a green pasture under a blue sky with the title Horse Riding Simulator.</desc>
  <defs>
    <linearGradient id="sky" x1="0" y1="0" x2="0" y2="1">
      <stop offset="0" stop-color="#90cfee"/>
      <stop offset="1" stop-color="#c7e8f4"/>
    </linearGradient>
    <linearGradient id="field" x1="0" y1="0" x2="1" y2="1">
      <stop offset="0" stop-color="#75ad43"/>
      <stop offset="0.56" stop-color="#5f9637"/>
      <stop offset="1" stop-color="#477b2d"/>
    </linearGradient>
    <linearGradient id="horse" x1="0" y1="0" x2="1" y2="1">
      <stop offset="0" stop-color="#7a3618"/>
      <stop offset="0.55" stop-color="#4a1d0d"/>
      <stop offset="1" stop-color="#241008"/>
    </linearGradient>
    <filter id="shadow" x="-20%" y="-20%" width="140%" height="160%">
      <feDropShadow dx="0" dy="12" stdDeviation="9" flood-color="#173310" flood-opacity="0.32"/>
    </filter>
  </defs>

  <rect width="1200" height="630" fill="url(#sky)"/>
  <path d="M0 358 C168 310 292 338 424 310 C590 274 734 312 880 286 C1018 262 1117 290 1200 270 L1200 630 L0 630 Z" fill="#79b94c"/>
  <path d="M0 430 C170 372 285 414 438 378 C606 338 766 394 938 350 C1040 324 1128 342 1200 326 L1200 630 L0 630 Z" fill="url(#field)"/>
  <path d="M0 500 C184 444 343 484 515 450 C699 414 859 472 1036 428 C1104 412 1159 416 1200 404 L1200 630 L0 630 Z" fill="#3f782d" opacity="0.72"/>

  <g opacity="0.72">
    <path d="M98 546 l8 -45 l9 45 Z M124 540 l6 -34 l7 34 Z M162 558 l10 -58 l13 58 Z M1016 544 l9 -52 l11 52 Z M1050 562 l14 -72 l16 72 Z M1104 530 l7 -38 l8 38 Z" fill="#2e6f22"/>
    <path d="M234 414 l5 -26 l6 26 Z M264 423 l8 -36 l9 36 Z M314 402 l5 -25 l8 25 Z M858 394 l7 -32 l8 32 Z M910 412 l8 -36 l10 36 Z M960 384 l5 -27 l7 27 Z" fill="#397c27"/>
    <path d="M542 526 l7 -39 l9 39 Z M578 508 l5 -30 l8 30 Z M640 536 l12 -56 l14 56 Z M704 514 l8 -38 l9 38 Z" fill="#2e6f22"/>
  </g>

  <g transform="translate(392 277) scale(1.36)" filter="url(#shadow)">
    <ellipse cx="196" cy="106" rx="118" ry="45" fill="url(#horse)"/>
    <path d="M91 103 C58 94 38 76 24 51 C17 37 20 24 34 21 C50 18 66 33 78 51 L103 87 Z" fill="#4f210f"/>
    <path d="M36 21 C23 9 18 0 19 -15 C32 -8 42 2 49 17 Z" fill="#2a1209"/>
    <path d="M59 29 C51 15 51 3 57 -9 C68 3 72 15 70 30 Z" fill="#351409"/>
    <path d="M74 52 C62 45 50 39 33 38 C48 58 66 76 95 88 Z" fill="#221008" opacity="0.55"/>
    <path d="M103 72 C125 42 154 35 185 46 C166 61 147 76 130 99 Z" fill="#351308"/>
    <path d="M94 126 C84 158 78 194 68 232 L48 232 C58 191 59 153 64 118 Z" fill="#3c1709"/>
    <path d="M150 139 C148 168 148 196 143 232 L124 232 C123 192 120 166 116 132 Z" fill="#4b1d0b"/>
    <path d="M246 136 C252 169 254 198 262 232 L242 232 C226 190 218 158 214 128 Z" fill="#40180a"/>
    <path d="M292 118 C306 151 315 184 334 232 L312 232 C289 194 275 162 262 125 Z" fill="#351409"/>
    <path d="M313 90 C354 75 379 56 395 26 C409 40 401 78 374 101 C350 121 328 126 309 122 Z" fill="#321307"/>
    <path d="M395 26 C404 13 413 8 424 7 C420 23 413 36 398 47 Z" fill="#1b0b05"/>
    <circle cx="42" cy="34" r="4" fill="#f0d5b4"/>
  </g>

  <g fill="#f7f1dc">
    <text x="600" y="129" text-anchor="middle" font-family="Segoe UI, Arial, sans-serif" font-size="78" font-weight="800" letter-spacing="2">Horse Riding</text>
    <text x="600" y="198" text-anchor="middle" font-family="Segoe UI, Arial, sans-serif" font-size="48" font-weight="600" letter-spacing="10">SIMULATOR</text>
  </g>
  <path d="M377 221 C472 244 716 244 823 221" fill="none" stroke="#f7f1dc" stroke-width="5" stroke-linecap="round" opacity="0.7"/>
</svg>
